<svg width="16" height="16" viewBox="0 0 16 16" fill="none" xmlns="http://www.w3.org/2000/svg">
<path d="M10.3046 12.175L9.40459 9.125L11.6546 7.525H8.85459L7.90459 4.425V10.325L10.3046 12.175ZM4.20459 15.65C3.82126 15.95 3.42959 15.9583 3.02959 15.675C2.62959 15.3917 2.49626 15.0167 2.62959 14.55L4.05459 9.925L0.429594 7.35C0.0295943 7.06667 -0.0910724 6.69167 0.0675943 6.225C0.225594 5.75833 0.546261 5.525 1.02959 5.525H5.50459L6.95459 0.725C7.03793 0.491667 7.16726 0.312334 7.34259 0.187C7.51726 0.0623336 7.70459 0 7.90459 0C8.10459 0 8.29193 0.0623336 8.46659 0.187C8.64193 0.312334 8.77126 0.491667 8.85459 0.725L10.3046 5.525H14.7796C15.2629 5.525 15.5839 5.75833 15.7426 6.225C15.9006 6.69167 15.7796 7.06667 15.3796 7.35L11.7546 9.925L13.1796 14.55C13.3129 15.0167 13.1796 15.3917 12.7796 15.675C12.3796 15.9583 11.9879 15.95 11.6046 15.65L7.90459 12.825L4.20459 15.65Z" fill="#EBC351"/>
</svg>
