<svg width="16" height="22" viewBox="0 0 16 22" fill="none" xmlns="http://www.w3.org/2000/svg">
<path d="M8 14.575C7.71667 14.575 7.47933 14.479 7.288 14.287C7.096 14.0957 7 13.8583 7 13.575V3.4L6.1 4.3C5.91667 4.48333 5.68767 4.575 5.413 4.575C5.13767 4.575 4.9 4.475 4.7 4.275C4.51667 4.075 4.425 3.83733 4.425 3.562C4.425 3.28733 4.51667 3.05833 4.7 2.875L7.3 0.275C7.38333 0.191667 7.48767 0.125 7.613 0.075C7.73767 0.025 7.86667 0 8 0C8.13333 0 8.26267 0.025 8.388 0.075C8.51267 0.125 8.61667 0.191667 8.7 0.275L11.3 2.875C11.5 3.075 11.6 3.31667 11.6 3.6C11.6 3.88333 11.5 4.11667 11.3 4.3C11.1 4.48333 10.8627 4.575 10.588 4.575C10.3127 4.575 10.0833 4.48333 9.9 4.3L9 3.4V13.575C9 13.8583 8.90433 14.0957 8.713 14.287C8.521 14.479 8.28333 14.575 8 14.575ZM2 21.575C1.45 21.575 0.979333 21.3793 0.588 20.988C0.196 20.596 0 20.125 0 19.575V8.575C0 8.025 0.196 7.554 0.588 7.162C0.979333 6.77067 1.45 6.575 2 6.575H4C4.28333 6.575 4.521 6.67067 4.713 6.862C4.90433 7.054 5 7.29167 5 7.575C5 7.85833 4.90433 8.09567 4.713 8.287C4.521 8.479 4.28333 8.575 4 8.575H2V19.575H14V8.575H12C11.7167 8.575 11.4793 8.479 11.288 8.287C11.096 8.09567 11 7.85833 11 7.575C11 7.29167 11.096 7.054 11.288 6.862C11.4793 6.67067 11.7167 6.575 12 6.575H14C14.55 6.575 15.021 6.77067 15.413 7.162C15.8043 7.554 16 8.025 16 8.575V19.575C16 20.125 15.8043 20.596 15.413 20.988C15.021 21.3793 14.55 21.575 14 21.575H2Z" fill="#7D7777"/>
</svg>
