<svg width="16" height="15" viewBox="0 0 16 15" fill="none" xmlns="http://www.w3.org/2000/svg">
<path d="M9.3 14.5964C9.1 14.3274 9.004 14.0022 9.012 13.6211C9.02067 13.2399 9.125 12.9148 9.325 12.6457L12.15 8.84529H1C0.716667 8.84529 0.479 8.71614 0.287 8.45785C0.0956668 8.20045 0 7.88117 0 7.5C0 7.11883 0.0956668 6.7991 0.287 6.54081C0.479 6.28341 0.716667 6.15471 1 6.15471H12.15L9.3 2.32063C9.1 2.05157 9 1.73184 9 1.36143C9 0.991928 9.1 0.672645 9.3 0.403587C9.5 0.134529 9.73767 0 10.013 0C10.2877 0 10.525 0.134529 10.725 0.403587L15.3 6.5583C15.4 6.69282 15.471 6.83856 15.513 6.99551C15.5543 7.15247 15.575 7.32063 15.575 7.5C15.575 7.67937 15.5543 7.84753 15.513 8.00448C15.471 8.16143 15.4 8.30717 15.3 8.4417L10.7 14.63C10.5167 14.8767 10.2877 15 10.013 15C9.73767 15 9.5 14.8655 9.3 14.5964Z" fill="#333333"/>
</svg>
