<svg width="20" height="22" viewBox="0 0 20 22" fill="none" xmlns="http://www.w3.org/2000/svg">
<path d="M6 17.747C4.9 17.747 4.01 18.7032 4.01 19.8719C4.01 21.0406 4.9 21.9968 6 21.9968C7.1 21.9968 8 21.0406 8 19.8719C8 18.7032 7.1 17.747 6 17.747ZM0 0.747803V2.8727H2L5.6 10.9367L4.25 13.5397C4.09 13.8372 4 14.1878 4 14.5597C4 15.7284 4.9 16.6846 6 16.6846H18V14.5597H6.42C6.28 14.5597 6.17 14.4428 6.17 14.2941L6.2 14.1666L7.1 12.4348H14.55C15.3 12.4348 15.96 11.9992 16.3 11.3404L19.88 4.44513C19.96 4.29639 20 4.11577 20 3.93516C20 3.35081 19.55 2.8727 19 2.8727H4.21L3.27 0.747803H0ZM16 17.747C14.9 17.747 14.01 18.7032 14.01 19.8719C14.01 21.0406 14.9 21.9968 16 21.9968C17.1 21.9968 18 21.0406 18 19.8719C18 18.7032 17.1 17.747 16 17.747Z" fill="black"/>
</svg>
