<svg width="20" height="22" viewBox="0 0 20 22" fill="none" xmlns="http://www.w3.org/2000/svg">
<path d="M14.2939 14.112H13.3905L13.0703 13.7839C14.191 12.3989 14.8656 10.6008 14.8656 8.64481C14.8656 4.28323 11.538 0.747803 7.43282 0.747803C3.32762 0.747803 0 4.28323 0 8.64481C0 13.0064 3.32762 16.5418 7.43282 16.5418C9.27387 16.5418 10.9663 15.825 12.2699 14.6344L12.5786 14.9746V15.9344L18.2962 21.9968L20 20.1866L14.2939 14.112ZM7.43282 14.112C4.58548 14.112 2.28702 11.67 2.28702 8.64481C2.28702 5.61965 4.58548 3.17765 7.43282 3.17765C10.2802 3.17765 12.5786 5.61965 12.5786 8.64481C12.5786 11.67 10.2802 14.112 7.43282 14.112Z" fill="black"/>
</svg>
